<svg width="47" height="47" viewBox="0 0 47 47" fill="none" xmlns="http://www.w3.org/2000/svg">
<path d="M45.0294 22.2736L45.1202 22.4466L45.2493 22.8046L45.3057 22.9856L45.3691 23.3518L45.3933 23.535L45.3928 23.9003L45.3852 24.0814L45.3229 24.436L45.2843 24.6104L45.1629 24.9441L45.0947 25.1077L44.9159 25.4122L44.8192 25.56L44.5841 25.8257L44.5221 25.8887L44.3876 26.0068L44.1719 26.1689L44.0762 26.2336L43.8526 26.3574L43.7394 26.4169L43.5184 26.5154L43.4661 26.5376L43.3691 26.573L43.3233 26.5891L43.2446 26.6117L43.2073 26.6206L43.1525 26.6272L43.1029 26.6153L43.1006 26.6128L43.0966 26.5917L43.0945 26.5785L43.091 26.5379L43.0881 26.4929L43.0851 26.3478L43.0835 26.2671L43.0833 26.061L43.0834 25.9512L43.0859 25.6929L43.0879 25.5591L43.0928 25.2613L43.0958 25.1085L43.1022 24.7814L43.1103 24.449L43.1308 23.7428L43.1413 23.39L43.1661 22.7073L43.1723 22.5419L43.1853 22.2306L43.1916 22.0793L43.2047 21.8042L43.2117 21.6725L43.2242 21.4437L43.231 21.3359L43.2432 21.1648L43.2494 21.0873L43.261 20.9845L43.2639 20.9636L43.2694 20.9363L43.2772 20.9184L43.289 20.9158L43.3395 20.9257L43.3687 20.9332L43.4482 20.9595L43.7418 21.0838L43.8012 21.1121L43.9241 21.1837L43.9867 21.2213L44.1127 21.3082L44.2396 21.399L44.4838 21.6116L44.6019 21.7212L44.8058 21.9486L44.8528 22.0048L44.9329 22.1156L44.9707 22.1702M41.9572 23.7439L41.9542 23.8547L41.9461 24.0601L41.9414 24.1582L41.9298 24.3249L41.9241 24.402L41.9114 24.5116L41.9084 24.5345L41.9018 24.5665L41.8929 24.5913L41.886 24.5979L41.8206 24.6135L41.7799 24.6219L41.6525 24.6405L41.582 24.6496L41.3998 24.6699L41.3029 24.6804L41.0738 24.7025L40.9544 24.7135L40.6858 24.7371L40.5473 24.7481L40.2464 24.772L40.0928 24.7842L39.767 24.808L39.6016 24.8199L39.2583 24.8433L38.912 24.8667L38.1979 24.91L37.8424 24.9307L37.155 24.9658L36.9872 24.9742L36.667 24.9879L36.5101 24.9946L36.2169 25.0055L36.0741 25.011L35.8146 25.0173L35.4726 25.0232L34.9476 25.0264L35.1648 24.816L35.2572 24.7258L35.4009 24.5483L35.4665 24.459L35.5606 24.2707L35.6024 24.1744L35.6531 23.9617L35.6877 23.5991L35.6913 23.4668L35.6701 23.2358L35.6541 23.1241L35.5918 22.923L35.555 22.8244L35.4449 22.6383L35.2208 22.3597L35.0143 22.1387L35.6284 22.1727L35.7348 22.178L35.9786 22.1943L36.1049 22.2035L36.3837 22.2255L36.5266 22.2371L36.8331 22.2641L36.9886 22.2779L37.3161 22.3088L37.6475 22.3398L38.3428 22.4118L38.6911 22.4485L39.3785 22.5253L39.548 22.5447L39.8743 22.5834L40.035 22.6027L40.3399 22.64L40.4894 22.6585L40.7665 22.6946L40.9009 22.7123L41.1423 22.7461L41.2582 22.7625L41.4582 22.7929L41.5517 22.8077L41.702 22.8341L41.7705 22.8469L41.8643 22.8681L41.9346 22.8936L41.9374 22.8966L41.9428 22.9192L41.9454 22.9329L41.9498 22.9745L41.9541 23.021L41.9592 23.1623L41.9609 23.239L41.9619 23.428L41.9616 23.5267M33.0262 19.3062L33.0208 19.6074L33.0139 20.1708L33.0127 20.3056L33.0114 20.558L33.011 20.6806L33.0113 20.9028L33.0113 21.0098L33.013 21.1954L33.0144 21.2829L33.0175 21.426L33.0194 21.491L33.0241 21.5849L33.0326 21.6618L33.0367 21.6741L33.0564 21.7107L33.0687 21.7305L33.1046 21.7821L33.124 21.8094L33.1748 21.8745L33.2018 21.9088L33.265 21.986L33.3326 22.0657L33.5026 22.2566L33.8024 22.5784L33.8902 22.6703L34.0347 22.8225L34.1029 22.8939L34.2106 23.0107L34.2611 23.0655L34.3382 23.1542L34.3739 23.1956L34.4251 23.2631L34.4483 23.2954L34.4788 23.3494L34.4919 23.375L34.507 23.4218L34.5182 23.5725L34.5164 23.6305L34.5001 23.7225L34.4933 23.7453L34.4687 23.7935L34.454 23.8191L34.4111 23.8772L34.387 23.9079L34.3199 23.9816L34.2828 24.0218L34.1859 24.1192L34.1334 24.1712L34.0015 24.2991L33.7589 24.5319L33.689 24.5987L33.5651 24.7189L33.5057 24.7767L33.4018 24.8798L33.3523 24.93L33.2668 25.0184L33.2262 25.0609L33.1576 25.137L33.125 25.1729L33.0723 25.2366L33.0481 25.2673L33.0088 25.3211L32.9384 25.4524L32.9337 25.4664L32.9243 25.5365L32.9195 25.5784L32.9094 25.6998L32.9044 25.7666L32.8938 25.9334L32.8889 26.0212L32.8783 26.2261L32.873 26.3324L32.8632 26.569L32.8589 26.6906L32.8496 26.9526L32.8268 27.8033L32.8246 27.92L32.8192 28.1352L32.8173 28.2402L32.8129 28.4325L32.8098 28.5262L32.8054 28.6975L32.803 28.78L32.7976 28.9313L32.7928 29.0782L32.782 29.3168L32.7761 29.4275L32.7628 29.6035L32.7556 29.6849L32.739 29.8095L32.7304 29.8665L32.71 29.95L32.6993 29.9879L32.6742 30.0415L32.6289 30.1001L32.6014 30.1263L32.5111 30.1897L32.462 30.2223L32.3388 30.2942L32.2092 30.3664L31.9075 30.5105L31.8335 30.5439L31.6905 30.6032L31.622 30.6314L31.5004 30.6741L31.4438 30.6928L31.3569 30.7128L31.2807 30.7111L31.2769 30.708L31.2706 30.6615L31.2674 30.6321L31.2632 30.5349L31.2606 30.4801L31.2575 30.335L31.2564 30.2568L31.2553 30.0678L31.2547 29.9681L31.255 29.7376L31.2553 29.618L31.2565 29.3504L31.2577 29.2127L31.2602 28.9114L31.2617 28.7571L31.2659 28.4256L31.2678 28.2567L31.273 27.8983L31.2757 27.7162L31.2819 27.3349L31.2854 27.1416L31.2921 26.7398L31.2962 26.5372L31.3043 26.1189L31.3124 25.6976L31.3314 24.8209L31.3415 24.3787L31.3624 23.481L31.3736 23.032L31.3969 22.1417L31.4084 21.7L31.4328 20.8439L31.4385 20.634L31.4513 20.2246L31.4574 20.022L31.4697 19.6311L31.476 19.4379L31.4879 19.0684L31.4945 18.8864L31.5067 18.5424L31.513 18.3741L31.5246 18.0583L31.5305 17.9046L31.5423 17.6212L31.5479 17.4841L31.5594 17.2372L31.565 17.1182L31.5757 16.9094L31.5813 16.8104L31.5915 16.6441L31.5966 16.5675L31.6062 16.4476L31.6109 16.3935L31.6203 16.3234L31.6326 16.2772L31.6468 16.2712L31.713 16.2844L31.7508 16.2941L31.8544 16.3346L31.9101 16.3568L32.0386 16.4174L32.1053 16.4492L32.2467 16.5232L32.389 16.5992L32.6573 16.7631L32.7189 16.8026L32.8223 16.8767L32.9344 16.9721L32.9482 16.9866L32.9721 17.0315L32.9822 17.0572L33.0001 17.1308L33.0089 17.1721L33.0215 17.2832L33.027 17.3449L33.0351 17.5023L33.038 17.5883L33.042 17.8014L33.0433 17.9157L33.0423 18.1926L33.0421 18.2663L33.0404 18.4274L33.0395 18.5104L33.0369 18.6896L33.0357 18.7824L33.0321 18.9825L33.0308 19.085M30.2289 21.9608L30.2078 22.8633L18.1052 22.5904L17.6 22.5794L16.6374 22.5575L16.1639 22.5477L15.2633 22.5277L14.821 22.5185L13.9829 22.5009L13.5718 22.4925L12.7962 22.4773L12.4164 22.4696L11.7027 22.4563L11.3541 22.4493L10.7029 22.4374L10.3851 22.4316L9.79633 22.4221L9.51024 22.4176L8.98345 22.41L8.72763 22.4061L8.2638 22.4004L8.03922 22.3972L7.63737 22.3934L7.4445 22.3915L7.10464 22.3896L6.94203 22.3883L6.66415 22.3884L6.53374 22.3888L6.31833 22.3903L6.21819 22.3914L6.06476 22.3947L5.99536 22.3971L5.90439 22.4028L5.83724 22.4135L5.79271 22.4388L5.72084 22.5065L5.6873 22.5424L5.63605 22.6267L5.61357 22.6702L5.58406 22.7652L5.57223 22.8128L5.56458 22.9127L5.56345 22.9625L5.57732 23.061L5.58694 23.1101L5.62295 23.2017L5.6439 23.2466L5.70217 23.3256L5.81421 23.4239L5.82094 23.4289L5.88081 23.4376L5.91879 23.4424L6.04065 23.453L6.1094 23.458L6.29375 23.469L6.39326 23.4742L6.63962 23.4862L6.77035 23.4931L7.07921 23.5055L7.2412 23.5121L7.61156 23.5259L7.8048 23.5332L8.23766 23.5475L8.46213 23.5555L8.957 23.5707L9.21224 23.579L9.76959 23.5956L10.0566 23.6041L10.6759 23.6216L10.9936 23.6303L11.676 23.6488L12.025 23.6582L12.7693 23.6776L13.149 23.6872L13.9559 23.7071L14.3668 23.7174L15.2362 23.7387L15.6784 23.7498L16.6102 23.7715L18.0775 23.8059L30.1814 24.0851L30.1586 25.0027L30.1357 25.9213L29.7773 25.939L29.771 25.9394L29.7416 25.9397L29.724 25.9403L29.6723 25.9411L29.6439 25.9414L29.5706 25.9426L29.5316 25.9427L29.4368 25.9435L29.387 25.9443L29.2722 25.9451L29.2126 25.9457L29.0778 25.9466L29.0079 25.9474L28.8536 25.9488L28.7739 25.9494L28.601 25.9503L28.4237 25.9517L28.0144 25.9541L27.8015 25.9551L27.3247 25.9579L27.0781 25.9596L26.5388 25.9629L26.2614 25.9644L25.6635 25.9674L25.3578 25.9692L24.7057 25.9724L24.3736 25.9746L23.6727 25.9777L23.3166 25.9799L22.5708 25.9829L22.1927 25.985L21.4073 25.9886L21.0102 25.9908L20.1897 25.9946L19.775 25.9964L18.9237 25.9999L18.4948 26.0019L17.6171 26.0058L16.2759 26.0114L3.13339 26.0655L1.59279 24.4261L0.0516948 22.7871L1.66734 21.2186L3.28201 19.6501L16.7338 20.3205L17.1962 20.3437L18.1041 20.3893L18.5548 20.4113L19.4363 20.4563L19.8734 20.478L20.7236 20.5213L21.1446 20.5421L21.9588 20.5836L22.3612 20.604L23.1354 20.6436L23.5169 20.6631L24.2461 20.7007L24.6047 20.7191L25.2847 20.7541L25.6173 20.7715L26.2432 20.8038L26.5481 20.82L27.1149 20.8496L27.3905 20.8641L27.8934 20.8907L28.1368 20.9036L28.5719 20.9272L28.6763 20.9335L28.8714 20.9438L28.9665 20.9494L29.1431 20.9583L29.2289 20.9632L29.3865 20.9721L29.4626 20.9768L29.6001 20.9848L29.6664 20.9883L29.7835 20.9948L29.8396 20.9986L29.9357 21.0042L29.9815 21.0072L30.0566 21.0118L30.0912 21.0141L30.1439 21.0182L30.1673 21.0197L30.1975 21.0224L30.217 21.0247L30.2194 21.0272L30.2228 21.0498L30.2249 21.064L30.2278 21.109L30.2305 21.1589L30.2334 21.3138L30.2348 21.3983L30.234 21.6073L30.233 21.7171L30.2289 21.9608Z" fill="white"/>
</svg>
